A married woman realizes how unhappy her marriage really is, and that her life needs to go in a different direction. After a painful divorce, she takes off on a round-the-world journey to "find herself". 



General
Complete name                    : Z:\Movies\Eat.Pray.Love.[2010].DvdRip.XviD-Knã\Eat.Pray.Love.[2010].DvdRip.XviD-Knã.avi
Format                           : AVI
Format/Info                      : Audio Video Interleave
Format profile                   : OpenDML
File size                        : 2.00 GiB
Duration                         : 2h 14mn
Overall bit rate                 : 2 127 Kbps
Writing application              : VirtualDubMod 1.5.4.1 (build 2178/release)
Writing library                  : VirtualDubMod build 2178/release

Video
ID                               : 0
Format                           : MPEG-4 Visual
Format profile                   : Advanced Simple@L5
Format settings, BVOP            : No
Format settings, QPel            : No
Format settings, GMC             : No warppoints
Format settings, Matrix          : Custom
Codec ID                         : XVID
Codec ID/Hint                    : XviD
Duration                         : 2h 14mn
Bit rate                         : 1 734 Kbps
Width                            : 720 pixels
Height                           : 384 pixels
Display aspect ratio             : 1.875
Frame rate                       : 25.000 fps
Color space                      : YUV
Chroma subsampling               : 4:2:0
Bit depth                        : 8 bits
Scan type                        : Progressive
Compression mode                 : Lossy
Bits/(Pixel*Frame)               : 0.251
Stream size                      : 1.63 GiB (82%)
Writing library                  : XviD 1.2.1 (UTC 2008-12-04)

Audio
ID                               : 1
Format                           : AC-3
Format/Info                      : Audio Coding 3
Mode extension                   : CM (complete main)
Codec ID                         : 2000
Duration                         : 2h 14mn
Bit rate mode                    : Constant
Bit rate                         : 384 Kbps
Channel(s)                       : 6 channels
Channel positions                : Front: L C R, Side: L R, LFE
Sampling rate                    : 48.0 KHz
Bit depth                        : 16 bits
Compression mode                 : Lossy
Stream size                      : 369 MiB (18%)
Alignment                        : Split accross interleaves
Interleave, duration             : 96 ms (2.40 video frames)
Interleave, preload duration     : 96 ms
Language                         : English

